<?xml version="1.0" standalone="no"?>
<!DOCTYPE svg PUBLIC "-//W3C//DTD SVG 20010904//EN"
 "http://www.w3.org/TR/2001/REC-SVG-20010904/DTD/svg10.dtd">
<svg version="1.0" xmlns="http://www.w3.org/2000/svg"
 width="2875.000000pt" height="2184.000000pt" viewBox="0 0 2875.000000 2184.000000"
 preserveAspectRatio="xMidYMid meet">

<g transform="translate(0.000000,2184.000000) scale(0.100000,-0.100000)"
fill="#000000" stroke="none">
<path d="M5635 19449 c-824 -65 -1570 -360 -2215 -875 -173 -138 -466 -431
-604 -604 -520 -652 -812 -1395 -876 -2229 -14 -187 -14 -9595 0 -9782 64
-831 360 -1583 876 -2229 139 -174 431 -466 604 -604 622 -496 1322 -783 2120
-868 184 -19 4816 -19 5000 0 798 85 1498 372 2120 868 173 138 465 430 604
604 516 644 813 1401 875 2226 15 196 15 9592 0 9788 -62 825 -359 1582 -875
2226 -139 174 -431 466 -604 604 -651 519 -1396 812 -2229 876 -161 12 -4642
12 -4796 -1z m4880 -5029 c553 -40 1038 -255 1434 -635 710 -683 898 -1746
466 -2640 -321 -665 -981 -1150 -1709 -1256 l-88 -13 5 -35 c3 -20 260 -1161
571 -2536 l565 -2500 -9 -97 c-28 -286 -139 -526 -351 -753 -521 -559 -1692
-931 -3094 -985 -1030 -39 -2136 176 -2906 566 -662 336 -1014 760 -1069 1288
l-10 99 566 2441 c311 1343 568 2457 571 2476 l5 36 -93 13 c-301 42 -640 170
-900 340 -839 546 -1224 1554 -964 2518 248 923 1074 1603 2029 1672 168 12
4813 13 4981 1z"/>
<path d="M5651 14154 c-175 -47 -330 -203 -375 -379 -9 -32 -16 -96 -16 -140
0 -44 7 -108 16 -140 34 -132 142 -269 261 -333 126 -67 -58 -62 2463 -62
2020 0 2293 2 2345 15 179 47 333 201 380 380 19 76 19 204 0 280 -47 179
-201 333 -380 380 -52 13 -324 15 -2350 14 -1967 0 -2298 -2 -2344 -15z"/>
<path d="M5585 12791 c-149 -40 -259 -106 -366 -219 -88 -93 -131 -162 -173
-279 -30 -84 -31 -95 -31 -243 0 -148 1 -159 31 -243 43 -118 85 -186 173
-279 88 -93 189 -159 309 -202 l87 -31 610 0 610 0 87 31 c120 43 221 109 309
202 88 93 130 161 173 279 30 84 31 95 31 243 0 148 -1 159 -31 243 -43 118
-85 186 -173 279 -88 93 -189 159 -309 202 l-87 31 -590 2 c-549 2 -595 1
-660 -16z"/>
<path d="M9185 12791 c-149 -40 -259 -106 -366 -219 -88 -93 -131 -162 -173
-279 -30 -84 -31 -95 -31 -243 0 -148 1 -159 31 -243 43 -118 85 -186 173
-279 88 -93 189 -159 309 -202 l87 -31 610 0 610 0 87 31 c120 43 221 109 309
202 88 93 130 161 173 279 30 84 31 95 31 243 0 148 -1 159 -31 243 -43 118
-85 186 -173 279 -88 93 -189 159 -309 202 l-87 31 -590 2 c-549 2 -595 1
-660 -16z"/>
<path d="M6512 5790 c-119 -31 -206 -83 -302 -180 -138 -137 -200 -285 -200
-475 0 -190 62 -338 200 -475 97 -98 184 -149 306 -180 75 -19 117 -20 1584
-20 1467 0 1509 1 1584 20 122 31 209 82 306 180 138 137 200 285 200 475 0
190 -62 338 -200 475 -97 98 -184 149 -306 180 -75 19 -116 20 -1588 19 -1454
0 -1514 -1 -1584 -19z"/>
<path d="M18880 19453 c-234 -26 -472 -112 -671 -244 -125 -83 -315 -273 -398
-398 -111 -167 -187 -354 -227 -556 -25 -125 -25 -405 0 -530 61 -309 189
-550 410 -771 221 -220 459 -347 771 -411 85 -17 198 -18 2200 -18 2002 0
2115 1 2200 18 312 64 550 191 771 411 221 221 349 462 410 771 25 125 25 405
0 530 -61 309 -189 550 -410 771 -216 216 -434 334 -748 407 l-93 21 -2090 2
c-1149 0 -2106 -1 -2125 -3z"/>
<path d="M20322 16260 c-245 -65 -449 -270 -512 -516 -14 -53 -20 -111 -20
-184 0 -73 6 -131 20 -184 63 -248 268 -453 516 -516 75 -19 117 -20 1329 -20
1212 0 1254 1 1329 20 248 63 453 268 516 516 14 53 20 111 20 184 0 73 -6
131 -20 184 -63 248 -268 453 -516 516 -75 19 -116 20 -1333 19 -1202 0 -1259
-1 -1329 -19z"/>
<path d="M18500 15427 c-225 -68 -389 -236 -451 -463 -28 -102 -23 -285 9
-384 64 -194 232 -361 427 -423 65 -20 89 -22 335 -22 300 0 342 7 469 82 132
78 248 223 294 368 32 101 32 309 0 410 -62 195 -227 361 -423 427 -59 20 -88
23 -325 25 -245 2 -264 1 -335 -20z"/>
<path d="M20322 14640 c-245 -65 -449 -270 -512 -516 -14 -53 -20 -111 -20
-184 0 -73 6 -131 20 -184 63 -248 268 -453 516 -516 75 -19 117 -20 1329 -20
1212 0 1254 1 1329 20 248 63 453 268 516 516 14 53 20 111 20 184 0 73 -6
131 -20 184 -63 248 -268 453 -516 516 -75 19 -116 20 -1333 19 -1202 0 -1259
-1 -1329 -19z"/>
<path d="M18655 12789 c-824 -65 -1570 -360 -2215 -875 -173 -138 -466 -431
-604 -604 -520 -652 -812 -1395 -876 -2229 -14 -182 -14 -2940 0 -3122 64
-831 360 -1583 876 -2229 139 -174 431 -466 604 -604 622 -496 1322 -783 2120
-868 184 -19 4816 -19 5000 0 798 85 1498 372 2120 868 173 138 465 430 604
604 516 644 813 1401 875 2226 7 89 11 657 11 1564 0 907 -4 1475 -11 1564
-62 825 -359 1582 -875 2226 -139 174 -431 466 -604 604 -651 519 -1396 812
-2229 876 -161 12 -4642 12 -4796 -1z m2202 -2751 c-3 -8 -6 -5 -6 6 -1 11 2
17 5 13 3 -3 4 -12 1 -19z m440 0 c-3 -8 -6 -5 -6 6 -1 11 2 17 5 13 3 -3 4
-12 1 -19z m-479 -115 c-10 -2 -26 -2 -35 0 -10 3 -2 5 17 5 19 0 27 -2 18 -5z
m535 0 c-7 -2 -19 -2 -25 0 -7 3 -2 5 12 5 14 0 19 -2 13 -5z m-1343 -202 c0
-5 7 -12 16 -15 8 -3 13 -2 10 3 -7 11 44 7 52 -4 11 -15 77 -12 98 5 18 14
18 14 1 -6 -16 -20 -16 -22 -2 -28 9 -3 21 -4 26 -1 5 3 18 1 29 -5 20 -11 26
-3 21 24 -1 5 6 3 16 -4 28 -22 29 -24 10 -17 -13 5 -18 3 -15 -9 2 -8 6 -15
11 -14 4 0 21 -6 37 -15 26 -14 29 -14 24 0 -4 8 -12 15 -20 15 -8 0 -14 4
-14 8 0 15 29 9 35 -7 5 -13 8 -13 14 -2 5 7 14 10 20 7 6 -4 9 -11 7 -15 -3
-4 5 -7 17 -6 12 1 27 -5 34 -14 11 -14 12 -14 13 4 0 11 4 16 8 10 10 -14 42
-15 42 -1 1 6 7 -2 15 -19 7 -16 14 -25 14 -19 2 20 29 24 46 8 10 -10 15 -11
15 -3 0 7 4 8 13 2 6 -5 25 -9 40 -8 17 1 26 -3 23 -11 -3 -7 6 -10 27 -7 18
2 41 5 52 6 11 1 19 -3 18 -10 -4 -16 -1 -16 33 2 25 13 29 13 37 0 4 -8 13
-15 18 -15 6 0 7 6 3 13 -5 9 -3 9 7 -1 12 -11 12 -14 -1 -22 -8 -5 -11 -10
-6 -10 5 0 18 8 29 18 11 9 17 12 14 5 -4 -6 -3 -14 3 -18 5 -3 10 -3 10 2 0
4 20 8 45 8 25 0 45 -2 45 -5 0 -3 14 -6 30 -7 75 -4 86 -6 98 -15 8 -7 17 -7
27 2 8 7 15 9 15 5 0 -4 6 -2 13 4 10 8 21 7 40 -2 15 -6 27 -15 27 -19 0 -5
5 -8 11 -8 5 0 8 4 4 9 -3 5 -1 12 5 16 5 3 10 2 10 -3 0 -5 7 -9 15 -9 8 0
15 5 15 10 0 6 5 6 13 0 6 -6 30 -9 52 -9 22 1 51 -4 64 -12 13 -8 21 -10 17
-4 -3 5 7 12 22 15 19 4 34 -1 52 -16 14 -12 22 -18 18 -13 -4 5 0 15 10 22
22 17 32 17 32 2 0 -8 13 -13 30 -13 33 0 36 4 18 25 -8 7 -2 6 11 -3 18 -12
28 -14 38 -5 10 8 13 7 13 -2 0 -7 7 -10 15 -6 8 3 15 0 16 -7 0 -9 2 -9 5 0
3 7 11 10 19 7 7 -3 16 -1 19 5 4 6 15 7 30 1 16 -6 28 -5 36 3 10 9 11 9 6 0
-3 -6 -2 -15 4 -18 6 -4 10 -3 9 2 -4 26 1 35 15 24 8 -6 18 -11 22 -10 21 4
28 -2 14 -12 -13 -9 -13 -10 0 -6 8 2 15 11 15 20 0 23 15 34 15 11 1 -18 1
-18 14 -1 14 18 36 23 36 8 0 -5 8 -7 19 -4 10 2 25 -2 34 -11 13 -13 16 -13
20 -1 3 7 1 15 -6 18 -6 2 -3 6 7 10 10 4 15 3 11 -3 -3 -6 1 -10 10 -10 9 0
13 5 10 10 -3 6 -1 10 5 10 6 0 13 -6 16 -14 3 -9 20 -13 47 -13 23 0 32 2 20
4 -13 3 -23 9 -23 15 0 6 10 8 24 4 14 -3 28 -1 31 4 4 6 18 2 37 -11 l30 -22
-6 21 c-6 17 -3 21 14 19 11 -1 20 -6 20 -11 0 -5 3 -6 6 -3 4 3 16 2 27 -4
14 -8 18 -8 13 0 -4 6 -4 11 1 11 4 0 25 4 45 9 30 7 35 6 31 -6 -5 -12 -1
-14 16 -8 14 4 23 2 27 -9 3 -9 9 -14 14 -11 12 8 159 -134 206 -201 165 -231
159 -511 -14 -676 -90 -86 -186 -127 -338 -143 -78 -8 -169 13 -242 58 -29 17
-121 91 -204 164 -161 141 -250 206 -357 260 -59 30 -207 83 -232 83 -5 0 -9
-167 -9 -433 l0 -434 108 -28 c529 -136 943 -336 1175 -568 174 -173 263 -346
313 -603 23 -120 24 -367 1 -489 -86 -469 -417 -819 -943 -995 -147 -49 -314
-85 -459 -100 -60 -6 -129 -13 -152 -16 l-41 -5 -4 -212 c-4 -221 -11 -260
-56 -311 -67 -75 -267 -75 -334 0 -45 51 -52 90 -56 310 l-4 212 -101 7 c-225
14 -361 36 -537 86 -530 151 -932 526 -991 925 -24 158 29 324 138 433 124
123 321 172 484 121 94 -29 179 -99 343 -283 236 -265 363 -359 576 -428 l85
-27 3 481 c1 264 -1 484 -5 488 -5 3 -87 30 -183 59 -409 122 -716 253 -931
395 -90 61 -228 192 -285 271 -209 292 -240 771 -76 1153 100 232 292 440 541
590 85 52 101 58 101 42z"/>
<path d="M20790 9560 c0 -5 4 -10 9 -10 6 0 13 5 16 10 3 6 -1 10 -9 10 -9 0
-16 -4 -16 -10z"/>
<path d="M22215 9540 c3 -5 8 -10 11 -10 2 0 4 5 4 10 0 6 -5 10 -11 10 -5 0
-7 -4 -4 -10z"/>
<path d="M20765 9099 c-151 -22 -310 -92 -375 -166 -110 -125 -87 -309 54
-440 88 -81 206 -135 374 -168 l32 -7 0 396 c0 311 -3 396 -12 395 -7 -1 -40
-5 -73 -10z"/>
<path d="M21300 6660 l0 -430 48 6 c158 19 305 77 377 149 73 73 90 119 90
250 0 100 -3 116 -29 172 -37 80 -122 163 -211 204 -64 30 -223 79 -257 79
-17 0 -18 -26 -18 -430z"/>
</g>
</svg>
