<?xml version="1.0" standalone="no"?>
<!DOCTYPE svg PUBLIC "-//W3C//DTD SVG 20010904//EN"
 "http://www.w3.org/TR/2001/REC-SVG-20010904/DTD/svg10.dtd">
<svg version="1.0" xmlns="http://www.w3.org/2000/svg"
 width="512.000000pt" height="512.000000pt" viewBox="0 0 512.000000 512.000000"
 preserveAspectRatio="xMidYMid meet">

<g transform="translate(0.000000,512.000000) scale(0.100000,-0.100000)"
fill="#000000" stroke="none">
<path d="M970 4070 c-288 -37 -519 -239 -602 -525 l-23 -80 0 -920 c0 -850 1
-925 18 -990 68 -267 298 -486 561 -534 37 -7 231 -11 513 -11 503 0 535 3
668 65 181 84 317 236 383 430 l27 80 3 925 c3 1044 6 1002 -73 1165 -103 215
-312 363 -555 395 -85 11 -836 11 -920 0z m975 -905 c123 -32 212 -106 269
-225 29 -60 31 -73 31 -170 0 -93 -3 -112 -27 -163 -52 -111 -179 -214 -288
-232 -35 -6 -39 -10 -35 -28 67 -281 195 -872 195 -900 0 -185 -316 -320 -710
-304 -326 14 -577 140 -605 305 -4 27 19 144 89 442 124 532 116 476 69 485
-65 12 -146 57 -199 110 -127 127 -158 313 -78 471 50 100 171 193 276 213 24
5 248 9 498 10 381 1 466 -2 515 -14z"/>
<path d="M966 3104 c-35 -35 -36 -92 -2 -131 l24 -28 435 0 435 0 25 23 c14
13 27 36 30 50 7 34 -15 87 -41 101 -14 7 -162 11 -450 11 l-429 0 -27 -26z"/>
<path d="M974 2881 c-30 -13 -71 -66 -79 -101 -9 -41 9 -91 46 -126 30 -28 33
-29 157 -32 119 -3 129 -2 162 20 77 51 88 138 25 206 l-33 37 -129 2 c-70 2
-137 -1 -149 -6z"/>
<path d="M1614 2881 c-32 -14 -72 -68 -80 -106 -8 -45 20 -102 66 -133 33 -22
43 -23 162 -20 124 3 127 4 157 32 63 60 63 142 1 201 -31 30 -32 30 -158 32
-70 2 -136 -1 -148 -6z"/>
<path d="M1122 1624 c-52 -36 -66 -107 -32 -162 36 -58 59 -62 357 -62 303 0
321 4 356 73 26 51 17 96 -29 136 l-35 31 -297 0 c-253 0 -301 -2 -320 -16z"/>
<path d="M3327 4066 c-114 -31 -186 -119 -195 -234 -6 -88 21 -156 86 -212 76
-67 96 -70 517 -70 410 0 439 3 508 60 148 123 121 352 -51 437 l-57 28 -380
2 c-290 2 -391 -1 -428 -11z"/>
<path d="M3260 2880 c-144 -23 -274 -92 -385 -204 -89 -90 -135 -161 -171
-265 -39 -112 -46 -205 -41 -519 4 -257 6 -295 26 -360 70 -237 231 -406 466
-489 l80 -28 515 0 515 0 80 27 c220 75 384 240 462 463 27 80 27 80 31 403 4
379 -2 432 -73 577 -91 187 -233 308 -440 376 -69 23 -79 23 -540 25 -258 1
-495 -2 -525 -6z m518 -452 c7 -7 12 -20 12 -29 0 -19 20 -29 55 -29 46 0 140
-43 178 -80 30 -30 37 -45 37 -76 0 -86 -87 -114 -157 -50 -21 18 -53 41 -71
50 -40 21 -44 14 -40 -75 l3 -64 60 -21 c161 -56 225 -123 225 -240 0 -124
-91 -214 -235 -233 l-50 -6 -5 -50 c-4 -44 -8 -50 -29 -53 -31 -5 -51 21 -51
65 0 35 1 34 -84 48 -127 21 -229 135 -195 217 14 34 67 62 96 51 10 -3 46
-32 79 -63 34 -31 71 -60 83 -63 20 -5 21 -2 21 83 l0 88 -32 7 c-61 13 -173
71 -200 104 -27 31 -48 87 -48 127 0 49 31 121 67 156 43 41 114 77 155 78 36
0 58 10 58 25 0 17 27 45 44 45 6 0 17 -5 24 -12z"/>
<path d="M3646 2209 c-14 -11 -26 -31 -26 -43 0 -25 33 -60 68 -71 21 -6 22
-4 22 64 0 63 -2 71 -19 71 -10 0 -30 -9 -45 -21z"/>
<path d="M3790 1794 l0 -76 33 6 c36 7 67 38 67 68 0 26 -53 78 -79 78 -19 0
-21 -6 -21 -76z"/>
</g>
</svg>
